<svg xmlns="http://www.w3.org/2000/svg" width="57" height="35" viewBox="0 0 57 35"><g><g><g><g><g><path fill="#ff5f00" d="M35.98 31.209H20.66V3.74h15.32z"/></g><g><g><path fill="#eb001b" d="M21.642 17.47c0-5.573 2.615-10.536 6.688-13.735A17.46 17.46 0 0 0 17.509 0C7.839 0 0 7.821 0 17.47c0 9.648 7.839 17.469 17.509 17.469a17.46 17.46 0 0 0 10.82-3.735c-4.072-3.2-6.687-8.163-6.687-13.735z"/></g></g><g><g><path fill="#f79e1b" d="M56.644 17.47c0 9.648-7.839 17.469-17.509 17.469a17.466 17.466 0 0 1-10.822-3.735c4.074-3.2 6.689-8.163 6.689-13.735 0-5.572-2.615-10.535-6.689-13.734A17.466 17.466 0 0 1 39.135 0c9.67 0 17.51 7.821 17.51 17.47z"/></g></g></g></g></g></g></svg>