<svg xmlns="http://www.w3.org/2000/svg" width="74" height="21" viewBox="0 0 74 21"><defs><linearGradient id="b4zxa" x1="52.23" x2="73.78" y1="4.23" y2="4.23" gradientUnits="userSpaceOnUse"><stop offset=".3" stop-color="#00b4e6"/><stop offset="1" stop-color="#088ccb"/></linearGradient></defs><g><g><g><g><path fill="#4db45e" d="M26.808 0v20.643h-6.515V8.393h-.542l-3.8 12.25h-4.524l-3.8-12.26h-.543v12.26H.57V0h6.514s2.86-.009 3.62 2.704c.705 2.533 2.713 9.556 2.713 9.556h.543c.91-3.18 1.815-6.363 2.715-9.547C17.435 0 20.285.01 20.293.01V0zM50.24 0v20.643h-6.514V8.383h-.543L38.66 18.48c-.896 1.983-2.895 2.163-2.895 2.163h-6.153V0h6.514v12.26h.543l4.614-10.096C42.18.17 44.088 0 44.088 0zm23.117 9.375a7.046 7.046 0 0 1-6.65 4.688H59.65v6.58h-6.514V9.375z"/></g><g><path fill="url(#b4zxa)" d="M66.715 0H52.23c.916 4.912 5.218 8.475 10.233 8.474h11.164a7.013 7.013 0 0 0-1.43-5.877A7.067 7.067 0 0 0 66.715 0z"/></g></g></g></g></svg>