<svg xmlns="http://www.w3.org/2000/svg" width="67" height="22" viewBox="0 0 67 22"><g><g><g><path fill="#00579f" d="M42.764.028c1.97-.123 3.944.156 5.803.819.042.02.086.04.13.056.056.018.056.018.037.111l-.353 1.674-.39 1.86-.112.483c-.056.298-.056.298-.335.186a5.578 5.578 0 0 0-.93-.353c-3.292-1.042-6.286-.446-6.286 1.265 0 .725.558 1.246 2.25 2.157.187.092.373.185.559.279l.464.242c2.958 1.562 4.166 3.143 4.166 5.467a6.51 6.51 0 0 1-4.259 6.12 12.648 12.648 0 0 1-3.347.855l-.744.055a16.96 16.96 0 0 1-5.394-.557l-.353-.093c-.223-.075-.855-.28-1.06-.372-.056-.038-.074-.056-.056-.093.082-.39.163-.781.242-1.172.049-.217.098-.434.149-.65l.186-.968c.123-.5.234-1.002.335-1.507.037-.223.037-.204.223-.13l.372.186c.184.078.37.152.558.223 1.808.757 3.795.983 5.728.651 1.246-.353 1.934-1.116 1.804-2.045-.112-.763-.744-1.32-2.66-2.288l-.967-.484c-3.366-1.878-4.482-4.277-3.422-7.253.911-2.529 3.757-4.37 7.235-4.668zM.677.586L.714.4h9.634l.186.075c1.06.372 1.562 1.023 1.804 2.269.028.161.06.323.093.483.022.099.04.198.056.298l.298 1.618.093.465c.121.72.251 1.44.39 2.157.09.434.176.868.26 1.302.19.991.376 1.983.558 2.976.146.704.276 1.41.39 2.12l.038.223.13-.316.967-2.474c.492-1.29 1-2.573 1.525-3.85.192-.498.39-.994.596-1.487.076-.192.15-.384.223-.577.331-.836.66-1.673.985-2.51.218-.582.448-1.158.689-1.73l.223-.54.186-.502h2.845c2.027-.018 2.79 0 2.79.019-.12.305-.244.61-.372.911-.095.235-.188.47-.279.707-.29.631-.563 1.27-.818 1.916a41.411 41.411 0 0 0-.707 1.71c-.195.4-.369.81-.52 1.228a144.584 144.584 0 0 1-1.302 3.087c-.076.18-.15.36-.224.54l-.576 1.395c-.082.185-.162.371-.242.557l-.558 1.34-.242.557-.52 1.265a357.306 357.306 0 0 0-2.177 5.208l-.074.186h-2.808l-2.827-.019a623.37 623.37 0 0 0-1.209-4.63l-.242-.95-.242-.91c-.162-.627-.323-1.253-.483-1.88-.28-1.022-.559-2.045-.837-3.068l-.39-1.525a170.72 170.72 0 0 1-.875-3.515c-.186-.762-.446-1.227-.93-1.562-.465-.353-2.064-1.004-3.254-1.358a41.832 41.832 0 0 0-1.99-.52l-.28-.075C.622.996.622.996.696.586zM27.923.493V.382h2.678c1.544 0 2.697.018 2.697.037-.125.57-.25 1.14-.372 1.711-.197.84-.377 1.682-.54 2.53a202.47 202.47 0 0 1-.576 2.66 66.672 66.672 0 0 1-.409 1.896l-.074.335c-.163.806-.33 1.612-.502 2.417l-.168.744c-.127.62-.258 1.24-.39 1.86l-.093.41c-.112.494-.218.99-.316 1.487l-.093.428c-.038.223-.763 3.496-.763 3.59l-.074.297-.056.242h-2.66c-2.66-.019-2.678-.019-2.678-.075l.168-.8c.126-.654.27-1.305.427-1.952.033-.142.064-.285.093-.428.049-.248.098-.496.15-.744.134-.523.252-1.05.352-1.58.067-.342.135-.683.205-1.024.27-1.259.543-2.517.818-3.775.206-.909.398-1.82.577-2.734l.111-.52c.059-.318.121-.634.186-.95.126-.544.25-1.09.372-1.636.28-1.34.565-2.68.856-4.017l.056-.298zM57.253.42C57.326.4 58.497.382 59.836.382h2.455l.038.186c.046.248.096.496.148.744.11.566.228 1.13.354 1.692.05.223.1.446.148.67l.298 1.487c.106.575.23 1.145.372 1.711.082.397.163.794.242 1.19l.242 1.172c.256 1.293.529 2.583.818 3.869.07.322.139.644.204.967.038.167.093.41.093.52l.094.428.148.67.149.744c.104.502.21 1.004.316 1.506l.149.744c.13.686.278 1.369.446 2.046l.019.223v.075l-2.455-.019h-2.474l-.055-.26c-.089-.41-.176-.818-.26-1.228a28.05 28.05 0 0 1-.317-1.488l-.019-.093h-6.806l-.056.15-.075.204c-.075.198-.15.396-.223.595-.231.638-.46 1.276-.688 1.915l-.074.205H47.45c.332-.798.66-1.598.986-2.4l.595-1.413c.416-1.013.837-2.023 1.265-3.031.26-.643.534-1.282.818-1.916.083-.197.164-.395.242-.595.074-.167.13-.335.167-.372.065-.16.127-.321.186-.483.193-.483.398-.96.614-1.432.083-.198.164-.396.242-.596l.148-.371c.202-.44.388-.887.558-1.34.055-.124.111-.248.168-.371a26.65 26.65 0 0 0 .39-.949 184.287 184.287 0 0 0 1.562-3.72c.335-.855 1.005-1.432 1.879-1.599zm1.264 5.71l-.019-.112-.055.167-.28.8a39.057 39.057 0 0 1-.706 1.916c-.082.222-.163.446-.242.67a303.84 303.84 0 0 1-1.47 4.054c-.018.055.094.055 2.177.055h2.176v-.055c-.254-1.1-.49-2.204-.707-3.31-.03-.156-.061-.311-.093-.466l-.093-.428c-.208-.965-.406-1.932-.595-2.9z"/></g></g></g></svg>