<svg width="24" height="39" viewBox="0 0 24 39" fill="none" xmlns="http://www.w3.org/2000/svg">
<path fill-rule="evenodd" clip-rule="evenodd" d="M20.9609 18.5615C19.1183 15.9362 15.9478 8.6518 16.8727 6.41081C13.9934 9.70008 15.0277 15.5728 15.0277 15.5728C15.0277 15.5728 13.9049 13.5368 14.2589 10.1334C12.386 11.0209 11.1211 13.2619 11.1211 13.2619C11.1211 13.2619 14.2519 4.72192 8.57959 0C9.96332 2.51121 8.68908 7.58722 7.70369 9.64185C6.79052 11.5451 4.3888 16.0503 2.24099 18.296C3.84835 17.0543 5.79815 16.2111 7.95295 15.9036C3.27296 17.4946 0 21.7739 0 26.9338C0 33.6032 5.14589 38.6326 11.9714 38.6326C18.6384 38.6326 23.8752 33.6102 23.9963 27.1598C24.0778 23.2835 22.8059 21.1869 20.9609 18.5615Z" fill="#DB393B"/>
</svg>
