<svg xmlns="http://www.w3.org/2000/svg" width="20" height="20" viewBox="0 0 20 20"><g><g><path fill="#999" d="M20 10c0 5.52-4.48 10-10 10S0 15.52 0 10 4.48 0 10 0s10 4.48 10 10zm-8.59 6.09c1.74-.33 3.11-1.33 3.12-3.16 0-2.52-2.16-3.39-4.18-3.91-2.02-.52-2.67-1.07-2.67-1.91 0-.96.9-1.64 2.4-1.64 1.58 0 2.17.76 2.22 1.87h1.96c-.06-1.53-.99-2.94-2.85-3.39V2H8.74v1.93c-1.72.37-3.11 1.49-3.11 3.21 0 2.05 1.7 3.07 4.18 3.67 2.23.53 2.67 1.31 2.67 2.14 0 .61-.44 1.59-2.4 1.59-1.83 0-2.55-.82-2.65-1.87H5.47c.11 1.94 1.56 3.04 3.27 3.4V18h2.67z"/></g></g></svg>