<svg xmlns="http://www.w3.org/2000/svg" width="43" height="32" viewBox="0 0 43 32"><defs><linearGradient id="uteaa" x1="29.51" x2="42.67" y1="18.03" y2="18.03" gradientUnits="userSpaceOnUse"><stop offset="0" stop-color="#007940"/><stop offset=".23" stop-color="#00873f"/><stop offset=".74" stop-color="#40a737"/><stop offset="1" stop-color="#5cb531"/></linearGradient><linearGradient id="uteab" x1="29.5" x2="42.68" y1="15.97" y2="15.97" gradientUnits="userSpaceOnUse"><stop offset="0" stop-color="#007940"/><stop offset=".23" stop-color="#00873f"/><stop offset=".74" stop-color="#40a737"/><stop offset="1" stop-color="#5cb531"/></linearGradient><linearGradient id="uteac" x1="29.51" x2="42.67" y1="13.74" y2="13.74" gradientUnits="userSpaceOnUse"><stop offset="0" stop-color="#007940"/><stop offset=".23" stop-color="#00873f"/><stop offset=".74" stop-color="#40a737"/><stop offset="1" stop-color="#5cb531"/></linearGradient><linearGradient id="utead" x1=".02" x2="13.4" y1="15.97" y2="15.97" gradientUnits="userSpaceOnUse"><stop offset="0" stop-color="#1f286f"/><stop offset=".48" stop-color="#004e94"/><stop offset=".83" stop-color="#0066b1"/><stop offset="1" stop-color="#006fbc"/></linearGradient><linearGradient id="uteae" x1="14.69" x2="27.68" y1="15.97" y2="15.97" gradientUnits="userSpaceOnUse"><stop offset="0" stop-color="#6c2c2f"/><stop offset=".17" stop-color="#882730"/><stop offset=".57" stop-color="#be1833"/><stop offset=".86" stop-color="#dc0436"/><stop offset="1" stop-color="#e60039"/></linearGradient></defs><g><g><g><g><path fill="url(#uteaa)" d="M32.12 19.433h3.077c.088 0 .293-.03.38-.03.587-.116 1.085-.644 1.085-1.376 0-.704-.498-1.231-1.084-1.378-.088-.029-.264-.029-.381-.029H32.12z"/></g><g><path fill="url(#uteab)" d="M34.843 0a5.334 5.334 0 0 0-5.334 5.333v5.539h7.531c.176 0 .381 0 .528.03 1.7.087 2.96.966 2.96 2.49 0 1.201-.85 2.227-2.433 2.432v.059c1.73.117 3.048 1.084 3.048 2.579 0 1.611-1.465 2.666-3.4 2.666H29.48v10.843h7.824a5.334 5.334 0 0 0 5.334-5.334V0z"/></g><g><path fill="url(#uteac)" d="M36.281 13.74c0-.704-.498-1.173-1.084-1.26-.059 0-.205-.03-.293-.03H32.12v2.579h2.784c.088 0 .264 0 .293-.03.586-.087 1.084-.556 1.084-1.26z"/></g></g><g><path fill="url(#utead)" d="M5.363 0A5.334 5.334 0 0 0 .029 5.333v13.158c1.495.732 3.048 1.201 4.601 1.201 1.846 0 2.843-1.113 2.843-2.637v-6.212h4.571v6.183c0 2.403-1.495 4.366-6.564 4.366-3.077 0-5.48-.674-5.48-.674V31.94h7.824a5.334 5.334 0 0 0 5.334-5.333V0z"/></g><g><path fill="url(#uteae)" d="M20.103 0a5.334 5.334 0 0 0-5.333 5.333v6.975c1.348-1.143 3.692-1.876 7.473-1.7 2.022.088 4.19.645 4.19.645v2.256c-1.084-.557-2.374-1.055-4.044-1.172-2.872-.205-4.6 1.202-4.6 3.663 0 2.49 1.728 3.897 4.6 3.663 1.67-.117 2.96-.645 4.044-1.172v2.256s-2.14.557-4.19.645c-3.78.176-6.125-.557-7.473-1.7V32h7.824a5.334 5.334 0 0 0 5.334-5.333V0z"/></g></g></g></svg>