<svg xmlns="http://www.w3.org/2000/svg" width="40" height="40" viewBox="0 0 40 40"><g><g><g><path fill="#fff" d="M39.004 21.25c.498 0 .83.417.996.833v14.084C40 38.25 38.257 40 36.183 40c-2.075 0-3.818-1.75-3.818-3.833V22.083c0-.5.332-.833.83-.833h2.158v-9.667c0-4.833-2.241-9.916-8.216-9.916-2.075 0-4.15.666-5.81 1.833 1.66 1.667 5.478 5.75 5.478 8.667 0 3.75-3.07 6.833-6.805 6.833-3.734 0-6.805-3.083-6.805-6.833 0-3 3.817-7 5.477-8.667-1.743-1.167-3.734-1.833-5.809-1.833-6.058 0-8.216 5.25-8.216 10.083v9.5h2.158c.498 0 .83.333.83.833v14.084C7.635 38.25 5.892 40 3.817 40 1.743 40 0 38.25 0 36.167V22.083c0-.5.332-.833.83-.833h2.158v-9.5C2.988 4.583 6.888 0 12.863 0c2.573 0 5.062.833 7.054 2.417C21.909.833 24.398 0 26.971 0c6.058 0 9.875 4.583 9.875 11.75v9.5zM5.975 26.917L1.66 31.25v3.167l4.315-4.334zm0 9.25v-3.75l-4.232 4.25c.249 1 1.079 1.666 2.074 1.666 1.162 0 2.158-1 2.158-2.166zm0-13.25H1.66v5.916L5.975 24.5zM19.917 4.583c-1.826 1.75-5.145 5.417-5.145 7.584 0 2.833 2.323 5.166 5.145 5.166 2.822 0 5.145-2.333 5.145-5.166 0-2.167-3.32-5.834-5.145-7.584zm13.942 29.834l4.315-4.334v-3.166L33.86 31.25zm0-11.5v5.916l4.315-4.333v-1.583zm4.315 13.25v-3.75l-4.232 4.25c.249 1 1.079 1.666 2.075 1.666 1.161 0 2.157-1 2.157-2.166z"/></g></g></g></svg>