<svg xmlns="http://www.w3.org/2000/svg" width="24" height="40" viewBox="0 0 24 40"><g><g><g><path fill="#fff" d="M10.611 11.115V5.352A6.448 6.448 0 0 1 5.523 1.47.866.866 0 1 1 7.119.793a4.723 4.723 0 0 0 4.359 2.89A4.748 4.748 0 0 0 15.924.57a.865.865 0 1 1 1.628.593 6.482 6.482 0 0 1-5.208 4.183v5.522c1.52 1.205 10.905 8.997 10.905 17.506C23.25 34.785 18.034 40 11.625 40 5.215 40 0 34.785 0 28.375c0-7.952 8.463-15.48 10.611-17.26zm5.261 17.066c0-6-2.938-11.81-4.336-14.238-1.398 2.455-4.349 8.337-4.349 14.238 0 5.433 2.29 9.22 4.343 9.22s4.342-3.788 4.343-9.22zM8.56 37.775c-1.866-1.85-3.106-5.411-3.106-9.594 0-5.148 2.013-10.143 3.572-13.24-3.07 3.09-7.293 8.273-7.293 13.434 0 4.384 2.87 8.106 6.827 9.4zm5.273-23.256c1.582 3.028 3.772 8.198 3.772 13.662 0 4.247-1.278 7.856-3.192 9.679 4.1-1.208 7.104-5 7.104-9.485 0-5.48-4.598-10.859-7.684-13.856z"/></g><g/></g></g></svg>