<svg xmlns="http://www.w3.org/2000/svg" width="31" height="37" viewBox="0 0 31 37"><g><g><g/><g><path fill="#fff" d="M1.794 22.005a9.749 9.749 0 0 1 3.058-3.521c.273-.194.558-.37.843-.535l-1.463-5.691H1.574a.854.854 0 0 1 0-1.708H8.46a.854.854 0 0 1 0 1.708H5.996l1.275 4.968a9.743 9.743 0 0 1 6.516 0l5.538 1.907 3.506-11.286h-2.396a.854.854 0 1 1 0-1.707h6.26l1.258-4.741a.855.855 0 1 1 1.633.398L28.21 7a.817.817 0 0 1-.04.091.854.854 0 0 1-.842.74h-2.692L20.94 19.685l4.291 1.48a7.831 7.831 0 0 1-2.55 15.235H10.579A9.869 9.869 0 0 1 .72 26.543a9.749 9.749 0 0 1 1.074-4.538zm4.054-2.098a8.059 8.059 0 0 0-3.42 6.636 8.161 8.161 0 0 0 8.15 8.15h12.105a6.113 6.113 0 0 0 4.7-2.209h-4.069a.854.854 0 1 1 0-1.707h5.071c.179-.458.301-.936.365-1.423h-5.436a.854.854 0 0 1 0-1.707h5.418a6.1 6.1 0 0 0-.415-1.463.845.845 0 0 1-.25.04h-4.753a.854.854 0 1 1 0-1.707h3.95a6.107 6.107 0 0 0-2.59-1.736L13.23 18.837a8.226 8.226 0 0 0-2.68-.456 8.07 8.07 0 0 0-4.707 1.526z"/></g><g><path fill="#fff" d="M7.828 29.194a3.335 3.335 0 1 1 5.037-1.33l3.164 2.316a.854.854 0 0 1-1.007 1.377l-3.221-2.361a3.335 3.335 0 0 1-3.973-.002zm1.998-4.284a1.628 1.628 0 0 0-1.628 1.605 1.628 1.628 0 1 0 1.628-1.628z"/></g></g></g></svg>