<svg xmlns="http://www.w3.org/2000/svg" width="39" height="34" viewBox="0 0 39 34"><g><g><g/><g><path fill="#fff" d="M11.654.005H28.32c2.736 0 4.968 2.173 4.992 4.841-.004-.021.006.052 0 .019a.682.682 0 0 1 .008.078c.009.195.014.253.01.39h3.212c1.127 0 2.104.876 2.104 2s-.977 2-2.104 2h-3.177v22.032c0 1.09-.91 1.976-2 1.976H12.698c-1.09 0-2-.887-2-1.976v-5.993h-3.33a.668.668 0 0 1-.67-.666c0-5.118.012-10.261-.018-15.373H2.099C.971 9.333 0 8.457 0 7.333c0-1.123.971-2 2.099-2h4.56c-.002-.145 0-.292-.003-.437v-.013c0-2.688 2.25-4.883 5-4.883zm.002 1.336c-2.047 0-3.666 1.604-3.666 3.55.048 3.242.059 6.507.057 9.776h18.63l.02-9.607c.003-1.09.9-1.992 1.993-1.992 1.092 0 1.992.9 1.992 1.992v.273h1.302c.006-.088.013-.188.013-.257-.04-.257-.04-.268.006-.058a.667.667 0 0 1-.013-.127c0-1.946-1.62-3.55-3.667-3.55zm16.375 3.722v.27h1.318V5.06a.643.643 0 0 0-.659-.659.645.645 0 0 0-.659.662zM2.101 6.667c-.462 0-.768.313-.768.666 0 .354.306.667.769.667h4.572c-.003-.444-.005-.89-.01-1.333zM28.024 8h8.521c.463 0 .771-.313.771-.667 0-.353-.308-.666-.77-.666h-8.516zm-.039 16.677a.667.667 0 0 1-.664.664l-15.291.029v5.995c0 .36.279.643.666.643h18.667c.387 0 .667-.282.667-.643V9.333H28.02zM8.042 16l-.006 2.656h2.618V16zm3.945 2.656h2.667V16h-2.667zm4 0h2.667V16h-2.667zm4 0h2.667V16h-2.667zm4 0H26.667L26.672 16H23.987zM8.037 19.99c-.004 1.351-.01 2.707-.011 4.054l18.628-.034.01-4.02H8.036z"/></g></g></g></svg>