<svg xmlns="http://www.w3.org/2000/svg" width="40" height="40" viewBox="0 0 40 40"><g><g><g><path fill="#fff" d="M3.652 22.694a2.94 2.94 0 1 1 4.137-4.18l4.778 4.778 10.713-10.74-4.772-4.75a2.936 2.936 0 1 1 4.153-4.152l13.703 13.707a2.935 2.935 0 0 1-4.153 4.147l-4.778-4.777L16.72 27.445l4.772 4.777a2.936 2.936 0 1 1-4.153 4.152zm1.116-3.048a1.334 1.334 0 0 0 0 1.89L18.47 35.243a1.367 1.367 0 0 0 1.89 0 1.333 1.333 0 0 0 0-1.89l-5.339-5.337a.8.8 0 0 1 0-1.132l11.85-11.85a.8.8 0 0 1 1.133 0l5.338 5.338a1.336 1.336 0 0 0 1.89-1.89L21.555 4.793a1.367 1.367 0 0 0-1.89 0 1.333 1.333 0 0 0 0 1.89l5.338 5.337a.8.8 0 0 1 0 1.126L13.127 24.99a.8.8 0 0 1-1.132 0l-5.338-5.337a1.333 1.333 0 0 0-1.89 0z"/></g><g><path fill="#fff" d="M26.38 5.013A2.936 2.936 0 1 1 30.533.86l2.226 2.226.64-.64a2.937 2.937 0 0 1 4.154 4.152l-.64.64 2.225 2.226a2.936 2.936 0 1 1-4.153 4.153zm1.137-3.01a1.334 1.334 0 0 0 0 1.889l8.6 8.598a1.336 1.336 0 0 0 1.89-1.89l-2.792-2.79a.8.8 0 0 1 0-1.132l1.206-1.206a1.336 1.336 0 1 0-1.89-1.89l-1.206 1.206a.8.8 0 0 1-1.132 0l-2.791-2.791a1.334 1.334 0 0 0-1.89 0z"/></g><g><path fill="#fff" d="M.86 30.543a2.936 2.936 0 1 1 4.153-4.153l8.6 8.572a2.944 2.944 0 1 1-4.148 4.18L7.24 36.914l-.64.641a2.937 2.937 0 0 1-4.153-4.153l.64-.64zm1.132-3.021a1.334 1.334 0 0 0 0 1.884l2.792 2.791a.8.8 0 0 1 0 1.132l-1.207 1.206a1.334 1.334 0 0 0 0 1.89 1.367 1.367 0 0 0 1.89 0l1.201-1.207a.8.8 0 0 1 1.132 0l2.791 2.792a1.335 1.335 0 0 0 1.89-1.89l-8.573-8.598a1.367 1.367 0 0 0-1.89 0z"/></g></g></g></svg>