<svg xmlns="http://www.w3.org/2000/svg" width="135" height="134" viewBox="0 0 135 134"><g><g><path fill="#fff" d="M103.112 44.805c-6.474 15.662 15.719 66.572 28.618 84.92a430.743 430.743 0 0 1 2.974 4.275H5.726c9.295-10.282 21.262-18.206 34.948-22.851-15.084 2.149-28.733 8.042-39.984 16.72 15.035-15.695 31.847-47.182 38.239-60.483C45.827 53.026 54.746 17.551 45.06 0c39.707 33.001 17.79 92.686 17.79 92.686s8.855-15.662 21.966-21.865c-2.479 23.787 5.38 38.016 5.38 38.016s-7.24-41.044 12.916-64.032z"/></g></g></svg>