<svg width="13" height="17" viewBox="0 0 13 17" fill="none" xmlns="http://www.w3.org/2000/svg">
<path fill-rule="evenodd" clip-rule="evenodd" d="M2.02688 17V13.8714H0V11.8011H2.02688V10.3288H0V8.00541H2.02688V0H6.69803C8.76253 0 10.3501 0.410786 11.4044 1.28601C12.479 2.16517 13 3.43553 13 5.04939C13 6.68605 12.4353 7.99845 11.2886 8.95016L11.2867 8.95174C10.1424 9.88516 8.4884 10.3288 6.37186 10.3288H4.70609V11.8011H8.55018V13.8714H4.70609V17H2.02688ZM9.20629 7.35499C9.88134 6.9629 10.2509 6.24966 10.2509 5.1184C10.2509 4.13745 9.94716 3.45824 9.3837 3.0211C8.80703 2.57371 7.8685 2.32341 6.51165 2.32341H4.70609V8.00541H6.069C7.45665 8.00541 8.49141 7.7785 9.20411 7.35627L9.20629 7.35499Z" fill="#433447"/>
</svg>
