<svg width="13" height="18" viewBox="0 0 13 18" fill="none" xmlns="http://www.w3.org/2000/svg">
<path d="M2.088 17.136V13.872H0L0 12.312H2.088V10.176H0L0 8.352H2.088L2.088 0L6.6 0C8.696 0 10.248 0.424001 11.256 1.272C12.28 2.12 12.792 3.352 12.792 4.968C12.792 6.6 12.24 7.88 11.136 8.808C10.032 9.72 8.408 10.176 6.264 10.176H4.248V12.312H8.208V13.872H4.248L4.248 17.136H2.088ZM4.248 8.352H5.952C7.408 8.352 8.536 8.112 9.336 7.632C10.152 7.152 10.56 6.288 10.56 5.04C10.56 3.952 10.224 3.144 9.552 2.616C8.88 2.088 7.832 1.824 6.408 1.824H4.248V8.352Z" fill="#999999"/>
</svg>
