<svg xmlns="http://www.w3.org/2000/svg" width="212" height="119" viewBox="0 0 212 119"><g><g><g><g><g><path fill="#fff" d="M50.197 65.76H23.613c-.61 0-1.103.505-1.103 1.13v6.663c0 .624.493 1.133 1.103 1.133h8.658v25.052c0 .624.497 1.13 1.107 1.13h7.058c.61 0 1.103-.506 1.103-1.13V74.686h8.658c.61 0 1.103-.51 1.103-1.133v-6.664c0-.624-.494-1.129-1.103-1.129z"/></g><g><path fill="#fff" d="M69.91 92.5c-4.908 0-8.612-3.95-8.612-9.192 0-5.325 3.584-9.193 8.521-9.193 4.909 0 8.612 3.955 8.612 9.193 0 5.329-3.583 9.192-8.52 9.192zm0-27.31c-10.204 0-18.2 7.959-18.2 18.118 0 10.329 7.784 18.118 18.109 18.118 10.205 0 18.2-7.959 18.2-18.118 0-10.329-7.784-18.118-18.108-18.118z"/></g><g><path fill="#fff" d="M120.641 65.76h-7.058c-.61 0-1.103.505-1.103 1.13v18.818c0 3.08-1.011 6.75-5.818 6.75-4.806 0-5.814-3.8-5.814-6.985V66.89c0-.624-.497-1.129-1.107-1.129h-7.058c-.61 0-1.103.505-1.103 1.13v18.77c0 9.994 5.462 15.724 14.99 15.724 9.645 0 15.174-5.816 15.174-15.958V66.89c0-.624-.493-1.129-1.103-1.129z"/></g><g><path fill="#fff" d="M152.338 89.012a1.089 1.089 0 0 0-1.55-.065c-2.478 2.305-4.437 3.553-7.69 3.553-4.676 0-8.2-3.95-8.2-9.192s3.524-9.193 8.2-9.193c3.281 0 5.103 1.133 7.506 3.367a1.09 1.09 0 0 0 1.579-.094l4.214-4.975a1.149 1.149 0 0 0-.06-1.548c-2.92-2.948-6.543-5.675-13.193-5.675-10.166 0-17.834 7.79-17.834 18.118 0 4.932 1.776 9.495 5.004 12.858 3.256 3.391 7.713 5.26 12.555 5.26 5.98 0 10.156-1.779 13.958-5.946a1.146 1.146 0 0 0 .004-1.54z"/></g><g><path fill="#fff" d="M188.797 65.76h-7.059c-.61 0-1.103.505-1.103 1.13v11.869h-10.807v-11.87c0-.624-.497-1.129-1.107-1.129h-7.058c-.61 0-1.103.505-1.103 1.13v32.848c0 .624.493 1.13 1.103 1.13h7.058c.61 0 1.107-.506 1.107-1.13V87.681h10.807v12.057c0 .624.494 1.13 1.103 1.13h7.058c.61 0 1.103-.506 1.103-1.13V66.889c0-.624-.493-1.129-1.103-1.129z"/></g><g><path fill="#fff" d="M63.029 115.862v-3.503c1.141 0 1.934.635 1.934 1.739 0 1.144-.793 1.764-1.934 1.764zm-2.418 0c-1.141 0-1.934-.62-1.934-1.764 0-1.104.793-1.739 1.934-1.739zm0 3.175h2.418v-.992c2.815 0 4.4-1.7 4.4-3.987 0-2.258-1.61-3.882-4.4-3.882v-.786H60.61v.786c-2.79 0-4.401 1.624-4.401 3.882 0 2.288 1.586 3.987 4.401 3.987z"/></g><g><path fill="#fff" d="M68.83 109.77h2.382v5l3.358-5h2.245v8.886h-2.382v-5l-3.358 5H68.83z"/></g><g><path fill="#fff" d="M80.784 111.927H78.18v-2.157h7.611v2.157h-2.6v6.729h-2.407z"/></g><g><path fill="#fff" d="M87.16 109.77h2.407v3.326h3.087v-3.326h2.403v8.886h-2.403v-3.377h-3.087v3.377H87.16z"/></g><g><path fill="#fff" d="M96.91 109.77h6.98v2.092h-4.598v1.346h4.165v1.945h-4.165v1.407h4.659v2.096H96.91z"/></g><g><path fill="#fff" d="M105.19 114.211c0-2.59 1.945-4.621 4.574-4.621 1.772 0 2.875.79 3.647 1.88l-1.762 1.396c-.497-.635-1.078-1.028-1.91-1.028-1.215 0-2.068 1.053-2.068 2.373 0 1.332.853 2.374 2.068 2.374.906 0 1.438-.433 1.96-1.079l1.81 1.32c-.817 1.155-1.923 2.007-3.844 2.007-2.48 0-4.475-1.945-4.475-4.622z"/></g><g><path fill="#fff" d="M114.58 115.751h4.067v-2.121h-4.067z"/></g><g><path fill="#fff" d="M120.22 109.77h2.407v3.604l2.984-3.604h2.855l-3.288 3.82 3.397 5.066h-2.886l-2.185-3.301-.877 1.003v2.298h-2.407z"/></g><g><path fill="#fff" d="M128.64 118.58l.162-1.89c.11.025.444.05.557.05.683 0 1.328-.357 1.328-5.736v-1.234h6.667v8.886h-2.403v-6.729h-2.022v.343c0 5.422-1.163 6.512-2.851 6.512-.631 0-1.251-.137-1.438-.202z"/></g><g><path fill="#fff" d="M139.159 118.187l.94-1.779c.335.231.72.307.98.307.212 0 .497-.076.758-.382l-3.397-6.563h2.678l1.97 4.178 1.86-4.178h2.615l-3.383 6.779c-.793 1.587-1.6 2.233-2.939 2.233a3.863 3.863 0 0 1-2.082-.595z"/></g><g><path fill="#fff" d="M151.047 116.585v-1.84h1.624c.705 0 1.128.354 1.128.902 0 .61-.423.938-1.142.938zm-2.407 2.067h4.204c2.044 0 3.358-1.064 3.358-2.904 0-1.916-1.473-2.857-3.481-2.857h-1.674v-1.028h4.574v-2.093h-6.981z"/></g><g><path fill="#db393b" d="M41.793 59.497h23.053c.61 0 1.103-.505 1.103-1.13v-6.57c0-.623-.493-1.132-1.103-1.132H49.954V25.519c0-.624-.493-1.129-1.103-1.129h-7.058c-.61 0-1.103.505-1.103 1.13v32.847c0 .625.493 1.13 1.103 1.13z"/></g><g><path fill="#db393b" d="M72.129 45.744v12.623c0 .625.493 1.13 1.103 1.13h7.058c.61 0 1.106-.505 1.106-1.13V45.603L93.55 26.13c.219-.346.233-.79.039-1.15a1.1 1.1 0 0 0-.97-.589H84.6c-.387 0-.743.206-.944.545l-6.84 11.573-6.712-11.566a1.097 1.097 0 0 0-.948-.552h-8.25c-.401 0-.775.224-.969.584-.194.365-.18.805.035 1.151z"/></g><g><path fill="#db393b" d="M130.2 58.358V25.513c0-.624-.493-1.133-1.103-1.133h-7.608c-.384 0-.736.202-.94.534l-7.496 12.346-7.491-12.346a1.105 1.105 0 0 0-.941-.534h-7.608c-.61 0-1.103.509-1.103 1.133v32.845c0 .624.493 1.129 1.103 1.129h6.92c.61 0 1.107-.505 1.107-1.13v-17.53l6.91 10.737c.205.321.55.509.92.509h.183c.374 0 .72-.188.924-.509l7.002-10.877v17.67c0 .625.496 1.13 1.106 1.13h7.012c.61 0 1.103-.505 1.103-1.13z"/></g><g><path fill="#db393b" d="M144.958 40.953v-7.778h4.348c2.11 0 4.623.664 4.623 3.842 0 2.428-1.72 3.936-4.485 3.936zm-1.107 18.544c.61 0 1.107-.505 1.107-1.13v-8.723h4.257c8.548 0 14.074-4.975 14.074-12.674 0-7.641-5.254-12.58-13.387-12.58h-13.109c-.61 0-1.103.505-1.103 1.13v32.847c0 .625.493 1.13 1.103 1.13z"/></g><g><path fill="#db393b" d="M167.733 59.497h7.058c.61 0 1.103-.505 1.103-1.13V25.52c0-.624-.493-1.129-1.103-1.129h-7.058c-.61 0-1.103.505-1.103 1.13v32.847c0 .625.493 1.13 1.103 1.13z"/></g><g><path fill="#db393b" d="M211.807 52.566l-4.493-4.928a1.089 1.089 0 0 0-1.55-.065c-2.474 2.306-4.433 3.554-7.69 3.554-4.672 0-8.2-3.95-8.2-9.193 0-5.238 3.528-9.188 8.2-9.188 3.285 0 5.107 1.132 7.51 3.366a1.088 1.088 0 0 0 1.575-.098l4.218-4.975a1.148 1.148 0 0 0-.06-1.544c-2.924-2.948-6.547-5.675-13.196-5.675-10.167 0-17.831 7.79-17.831 18.114 0 4.932 1.776 9.5 5 12.858 3.256 3.392 7.714 5.26 12.556 5.26 5.98 0 10.155-1.778 13.961-5.942a1.151 1.151 0 0 0 0-1.544z"/></g><g><path fill="#db393b" d="M18.51 51.135c-4.908 0-8.612-3.95-8.612-9.192 0-5.325 3.584-9.193 8.521-9.193 4.909 0 8.612 3.954 8.612 9.193 0 5.325-3.584 9.192-8.52 9.192zm13.507-22.159c-2.787-4.065-7.583-15.347-6.184-18.818-4.355 5.095-2.79 14.19-2.79 14.19s-1.7-3.153-1.164-8.424c-2.833 1.374-4.746 4.845-4.746 4.845S21.869 7.543 13.288.23c2.093 3.89.166 11.75-1.325 14.932C10.582 18.11 6.95 25.087 3.7 28.565a18.098 18.098 0 0 1 8.64-3.705C5.261 27.324.31 33.952.31 41.943c0 10.329 7.784 18.118 18.109 18.118 10.085 0 18.007-7.779 18.19-17.768.123-6.004-1.8-9.25-4.592-13.317z"/></g></g></g></g></g></svg>