<svg xmlns="http://www.w3.org/2000/svg" width="180" height="99" viewBox="0 0 180 99"><g><g><g><g><g><path fill="#433447" d="M42.4 54.4H19.807a.937.937 0 0 0-.937.937v5.532c0 .518.42.94.937.94h7.359v20.796a.94.94 0 0 0 .94.937h5.998c.519 0 .938-.419.938-.937V61.809H42.4a.94.94 0 0 0 .937-.94v-5.532a.937.937 0 0 0-.937-.937z"/></g><g><path fill="#433447" d="M59.148 76.6c-4.172 0-7.32-3.279-7.32-7.63 0-4.42 3.046-7.63 7.242-7.63 4.172 0 7.32 3.281 7.32 7.63 0 4.423-3.046 7.63-7.242 7.63zm0-22.67c-8.673 0-15.468 6.607-15.468 15.04 0 8.574 6.615 15.04 15.39 15.04 8.673 0 15.468-6.607 15.468-15.04 0-8.574-6.615-15.04-15.39-15.04z"/></g><g><path fill="#433447" d="M102.268 54.4H96.27a.937.937 0 0 0-.938.937v15.621c0 2.558-.86 5.603-4.944 5.603-4.085 0-4.942-3.153-4.942-5.798V55.338a.94.94 0 0 0-.94-.937h-5.999a.937.937 0 0 0-.937.937V70.92c0 8.296 4.642 13.052 12.74 13.052 8.197 0 12.895-4.828 12.895-13.246V55.337a.937.937 0 0 0-.937-.937z"/></g><g><path fill="#433447" d="M129.21 73.705a.94.94 0 0 0-1.318-.054c-2.105 1.913-3.77 2.95-6.534 2.95-3.974 0-6.97-3.28-6.97-7.631 0-4.352 2.996-7.63 6.97-7.63 2.788 0 4.336.94 6.379 2.793a.94.94 0 0 0 1.341-.078l3.582-4.13a.937.937 0 0 0-.05-1.284c-2.484-2.447-5.562-4.711-11.213-4.711-8.64 0-15.157 6.466-15.157 15.04 0 4.094 1.51 7.882 4.253 10.673 2.767 2.815 6.555 4.367 10.67 4.367 5.082 0 8.631-1.477 11.862-4.936a.935.935 0 0 0 .003-1.278z"/></g><g><path fill="#433447" d="M160.187 54.4h-5.998a.937.937 0 0 0-.938.937v9.853h-9.185v-9.853a.94.94 0 0 0-.94-.937h-5.999a.937.937 0 0 0-.937.937v27.268c0 .518.42.937.937.937h5.999a.94.94 0 0 0 .94-.937V72.596h9.185v10.009c0 .518.42.937.938.937h5.998c.518 0 .938-.419.938-.937V55.337a.937.937 0 0 0-.938-.937z"/></g><g><path fill="#433447" d="M53.305 95.993v-2.908c.97 0 1.644.527 1.644 1.443 0 .95-.674 1.465-1.644 1.465zm-2.055 0c-.97 0-1.644-.515-1.644-1.465 0-.916.674-1.443 1.644-1.443zm0 2.635h2.055v-.823c2.393 0 3.74-1.411 3.74-3.31 0-1.874-1.368-3.222-3.74-3.222v-.653H51.25v.653c-2.371 0-3.74 1.348-3.74 3.222 0 1.899 1.348 3.31 3.74 3.31z"/></g><g><path fill="#433447" d="M58.24 90.93h2.024v4.15l2.855-4.15h1.907v7.376h-2.024v-4.15l-2.854 4.15H58.24z"/></g><g><path fill="#433447" d="M68.393 92.72H66.18v-1.79h6.469v1.79h-2.21v5.586h-2.046z"/></g><g><path fill="#433447" d="M73.81 90.93h2.045v2.761h2.624V90.93h2.042v7.376H78.48v-2.803h-2.624v2.803H73.81z"/></g><g><path fill="#433447" d="M82.1 90.93h5.933v1.737h-3.909v1.117h3.54v1.614h-3.54v1.168h3.96v1.74H82.1z"/></g><g><path fill="#433447" d="M89.14 94.616c0-2.15 1.653-3.836 3.887-3.836 1.507 0 2.444.656 3.1 1.56l-1.498 1.16c-.422-.528-.916-.854-1.623-.854-1.033 0-1.758.874-1.758 1.97 0 1.105.725 1.97 1.758 1.97.77 0 1.222-.358 1.665-.895l1.54 1.097c-.695.958-1.635 1.665-3.268 1.665-2.108 0-3.803-1.615-3.803-3.837z"/></g><g><path fill="#433447" d="M97.11 95.9h3.456v-1.76H97.11z"/></g><g><path fill="#433447" d="M101.91 90.93h2.045v2.992l2.537-2.992h2.426l-2.794 3.171 2.887 4.205h-2.453l-1.857-2.74-.746.832v1.908h-2.045z"/></g><g><path fill="#433447" d="M109.06 98.243l.138-1.569c.093.021.377.042.473.042.58 0 1.129-.297 1.129-4.762V90.93h5.666v7.376h-2.042v-5.585h-1.72v.284c0 4.502-.988 5.406-2.422 5.406a4.623 4.623 0 0 1-1.222-.168z"/></g><g><path fill="#433447" d="M118 97.917l.8-1.477c.285.192.611.255.833.255.18 0 .422-.063.644-.317l-2.887-5.448h2.276l1.674 3.468 1.581-3.468h2.223l-2.875 5.627c-.674 1.318-1.36 1.854-2.498 1.854a3.34 3.34 0 0 1-1.77-.494z"/></g><g><path fill="#433447" d="M128.105 96.587V95.06h1.381c.599 0 .958.293.958.749 0 .506-.359.778-.97.778zm-2.045 1.716h3.573c1.737 0 2.854-.883 2.854-2.41 0-1.59-1.252-2.373-2.959-2.373h-1.423v-.853h3.888V90.93h-5.933z"/></g><g><path fill="#db393b" d="M35.257 49.202H54.85c.518 0 .938-.419.938-.937V42.81a.94.94 0 0 0-.938-.94H42.193V20.997a.937.937 0 0 0-.937-.937h-5.999a.937.937 0 0 0-.937.937v27.268c0 .518.42.937.937.937z"/></g><g><path fill="#db393b" d="M61.038 37.776v10.479c0 .518.419.937.937.937h5.999a.94.94 0 0 0 .94-.937V37.659l10.33-16.166a.938.938 0 0 0-.79-1.443h-6.818c-.33 0-.632.17-.802.452L65.02 30.11l-5.705-9.602a.936.936 0 0 0-.806-.458H51.5a.941.941 0 0 0-.824.485.941.941 0 0 0 .03.956z"/></g><g><path fill="#db393b" d="M110.392 48.255V20.99a.94.94 0 0 0-.937-.94h-6.466a.943.943 0 0 0-.8.443l-6.37 10.248-6.366-10.248a.943.943 0 0 0-.8-.443h-6.466a.94.94 0 0 0-.937.94v27.265c0 .518.42.937.937.937h5.882a.94.94 0 0 0 .94-.937V33.703l5.873 8.913a.93.93 0 0 0 .782.422h.156a.93.93 0 0 0 .784-.422l5.95-9.03v14.669a.94.94 0 0 0 .941.937h5.96c.518 0 .937-.419.937-.937z"/></g><g><path fill="#db393b" d="M122.936 33.81v-6.458h3.696c1.794 0 3.929.551 3.929 3.19 0 2.015-1.461 3.267-3.812 3.267zm-.94 15.392a.94.94 0 0 0 .94-.937v-7.241h3.618c7.265 0 11.961-4.13 11.961-10.521 0-6.343-4.465-10.443-11.377-10.443h-11.14a.937.937 0 0 0-.938.937v27.268c0 .518.42.937.937.937z"/></g><g><path fill="#db393b" d="M142.287 49.202h5.999c.518 0 .937-.419.937-.937V20.997a.937.937 0 0 0-.937-.937h-5.999a.937.937 0 0 0-.937.937v27.268c0 .518.42.937.937.937z"/></g><g><path fill="#db393b" d="M179.745 43.453l-3.818-4.091a.94.94 0 0 0-1.318-.054c-2.102 1.913-3.767 2.95-6.534 2.95-3.971 0-6.97-3.28-6.97-7.631 0-4.349 2.999-7.628 6.97-7.628 2.79 0 4.34.94 6.382 2.794a.937.937 0 0 0 .685.24.932.932 0 0 0 .653-.32l3.585-4.13a.937.937 0 0 0-.05-1.282c-2.487-2.447-5.565-4.711-11.216-4.711-8.64 0-15.154 6.466-15.154 15.037 0 4.094 1.51 7.885 4.25 10.673 2.767 2.815 6.555 4.367 10.67 4.367 5.082 0 8.631-1.477 11.865-4.933a.94.94 0 0 0 0-1.281z"/></g><g><path fill="#db393b" d="M15.468 42.257c-4.172 0-7.32-3.28-7.32-7.631 0-4.42 3.047-7.631 7.242-7.631 4.172 0 7.32 3.282 7.32 7.63 0 4.421-3.046 7.632-7.242 7.632zm11.48-18.394c-2.37-3.376-6.446-12.74-5.257-15.621C17.99 12.47 19.32 20.02 19.32 20.02s-1.443-2.617-.988-6.993c-2.408 1.141-4.034 4.022-4.034 4.022S18.322 6.07 11.03 0c1.779 3.228.14 9.754-1.126 12.395-1.174 2.447-4.262 8.24-7.023 11.126 2.066-1.596 4.573-2.68 7.343-3.076C4.208 22.491 0 27.992 0 34.625c0 8.575 6.615 15.04 15.39 15.04 8.571 0 15.304-6.456 15.46-14.749.104-4.983-1.531-7.678-3.903-11.053z"/></g></g></g></g></g></svg>