<svg xmlns="http://www.w3.org/2000/svg" width="180" height="41" viewBox="0 0 180 41"><g><g><g><g><path fill="#fff" d="M56.69 38.558v-2.64c.881 0 1.493.479 1.493 1.31 0 .862-.612 1.33-1.493 1.33zm-1.864 0c-.88 0-1.493-.468-1.493-1.33 0-.831.612-1.31 1.493-1.31zm0 2.392h1.864v-.747c2.173 0 3.397-1.282 3.397-3.003 0-1.704-1.244-2.928-3.397-2.928v-.592h-1.864v.592c-2.153 0-3.396 1.224-3.396 2.928 0 1.72 1.224 3.003 3.396 3.003z"/></g><g><path fill="#fff" d="M61.17 33.97h1.836v3.77l2.593-3.77h1.73v6.695h-1.836v-3.767l-2.591 3.767H61.17z"/></g><g><path fill="#fff" d="M70.39 35.595h-2.01V33.97h5.875v1.625h-2.01v5.07H70.39z"/></g><g><path fill="#fff" d="M75.31 33.97h1.855v2.507h2.383V33.97h1.856v6.695h-1.856V38.12h-2.383v2.544H75.31z"/></g><g><path fill="#fff" d="M82.83 33.97h5.384v1.578h-3.548v1.013h3.214v1.465h-3.214v1.061h3.598v1.578H82.83z"/></g><g><path fill="#fff" d="M89.22 37.32c0-1.95 1.502-3.48 3.529-3.48 1.369 0 2.22.592 2.812 1.415l-1.358 1.052c-.382-.48-.832-.774-1.472-.774-.937 0-1.6.794-1.6 1.788 0 1.005.663 1.788 1.6 1.788.697 0 1.11-.325 1.51-.812l1.396.994c-.63.87-1.482 1.51-2.964 1.51-1.912 0-3.453-1.462-3.453-3.48z"/></g><g><path fill="#fff" d="M96.46 38.477h3.138V36.88H96.46z"/></g><g><path fill="#fff" d="M100.82 33.97h1.855v2.717l2.305-2.717h2.2l-2.534 2.88 2.621 3.815h-2.228l-1.684-2.487-.68.757v1.73h-1.855z"/></g><g><path fill="#fff" d="M107.31 40.608l.124-1.425c.087.02.345.039.432.039.525 0 1.022-.27 1.022-4.323v-.929h5.147v6.695h-1.857v-5.07h-1.559v.259c0 4.084-.898 4.909-2.2 4.909-.488 0-.966-.107-1.109-.155z"/></g><g><path fill="#fff" d="M115.426 40.311l.727-1.339c.258.172.555.23.755.23.163 0 .382-.058.584-.288l-2.622-4.944h2.066l1.521 3.147 1.435-3.147h2.018l-2.61 5.106c-.613 1.196-1.233 1.684-2.269 1.684-.64 0-1.156-.182-1.605-.449z"/></g><g><path fill="#fff" d="M124.595 39.107V37.72h1.253c.547 0 .87.267.87.68 0 .457-.323.707-.879.707zm-1.855 1.558h3.242c1.578 0 2.593-.803 2.593-2.19 0-1.443-1.139-2.153-2.688-2.153h-1.292v-.774h3.53V33.97h-5.385z"/></g><g><path fill="#fff" d="M114.183 11.12h-12.524a.52.52 0 0 0-.519.52v3.067c0 .287.232.519.519.519h4.08v11.528c0 .288.232.52.52.52h3.325c.286 0 .52-.232.52-.52V15.226h4.079a.52.52 0 0 0 .52-.519v-3.066a.521.521 0 0 0-.52-.521z"/></g><g><path fill="#fff" d="M123.474 23.425c-2.313 0-4.056-1.819-4.056-4.23 0-2.45 1.686-4.23 4.013-4.23 2.313 0 4.058 1.82 4.058 4.23 0 2.45-1.688 4.23-4.015 4.23zm0-12.565c-4.807 0-8.574 3.661-8.574 8.335 0 4.753 3.668 8.336 8.53 8.336 4.81 0 8.575-3.661 8.575-8.336 0-4.752-3.667-8.335-8.53-8.335z"/></g><g><path fill="#fff" d="M147.371 11.12h-3.324a.52.52 0 0 0-.521.52v8.657c0 1.42-.475 3.108-2.741 3.108-2.263 0-2.739-1.747-2.739-3.214v-8.55a.52.52 0 0 0-.52-.521H134.2a.521.521 0 0 0-.521.52v8.638c0 4.596 2.574 7.233 7.064 7.233 4.542 0 7.148-2.676 7.148-7.342v-8.528a.521.521 0 0 0-.52-.521z"/></g><g><path fill="#fff" d="M162.302 21.821a.522.522 0 0 0-.731-.03c-1.166 1.061-2.088 1.636-3.622 1.636-2.203 0-3.863-1.818-3.863-4.23 0-2.413 1.66-4.229 3.863-4.229 1.547 0 2.404.52 3.537 1.547a.516.516 0 0 0 .742-.043l1.986-2.29a.519.519 0 0 0-.028-.711c-1.376-1.357-3.082-2.611-6.215-2.611-4.79 0-8.401 3.585-8.401 8.338 0 2.268.835 4.368 2.357 5.916 1.534 1.56 3.633 2.42 5.913 2.42 2.82 0 4.785-.819 6.578-2.735a.52.52 0 0 0 0-.71z"/></g><g><path fill="#fff" d="M179.483 11.12h-3.325a.52.52 0 0 0-.52.52v5.46h-5.092v-5.46a.52.52 0 0 0-.52-.52H166.7a.521.521 0 0 0-.521.52v15.114c0 .288.234.52.52.52h3.325a.52.52 0 0 0 .521-.52v-5.547h5.091v5.547c0 .288.233.52.521.52h3.325c.286 0 .52-.232.52-.52V11.64a.521.521 0 0 0-.52-.521z"/></g><g><path fill="#db393b" d="M19.55 27.274h10.86a.52.52 0 0 0 .521-.52V23.73a.52.52 0 0 0-.52-.519h-7.015V11.641a.52.52 0 0 0-.52-.521H19.55a.521.521 0 0 0-.521.52v15.114c0 .288.234.52.52.52z"/></g><g><path fill="#db393b" d="M33.848 20.946v5.808c0 .288.233.52.521.52h3.325c.286 0 .52-.232.52-.52v-5.87l5.726-8.963a.52.52 0 0 0-.439-.801h-3.778a.518.518 0 0 0-.445.252l-3.22 5.323-3.164-5.321a.521.521 0 0 0-.448-.254H28.56a.52.52 0 0 0-.438.799z"/></g><g><path fill="#db393b" d="M61.205 26.754V11.64a.52.52 0 0 0-.521-.521H57.1a.523.523 0 0 0-.443.245l-3.53 5.68-3.532-5.68a.524.524 0 0 0-.442-.245H45.57a.52.52 0 0 0-.521.52v15.114c0 .286.232.52.52.52h3.26c.289 0 .521-.234.521-.52v-8.067l3.255 4.942c.096.145.26.234.434.234h.087a.52.52 0 0 0 .434-.234l3.299-5.007v8.132c0 .286.234.52.52.52h3.304c.288 0 .52-.234.52-.52z"/></g><g><path fill="#db393b" d="M68.156 18.742V15.16h2.049c.994 0 2.179.308 2.179 1.768 0 1.118-.81 1.813-2.114 1.813zm-.52 8.532a.52.52 0 0 0 .52-.52V22.74h2.006c4.027 0 6.632-2.29 6.632-5.833 0-3.516-2.477-5.788-6.307-5.788h-6.176a.521.521 0 0 0-.521.52v15.114c0 .288.234.52.52.52z"/></g><g><path fill="#db393b" d="M78.89 27.274h3.325a.52.52 0 0 0 .521-.52V11.64a.52.52 0 0 0-.52-.521H78.89a.521.521 0 0 0-.521.52v15.114c0 .288.234.52.52.52z"/></g><g><path fill="#db393b" d="M99.648 24.087l-2.116-2.268a.522.522 0 0 0-.731-.03c-1.166 1.061-2.088 1.636-3.622 1.636-2.203 0-3.863-1.819-3.863-4.23 0-2.41 1.66-4.23 3.863-4.23 1.547 0 2.404.522 3.537 1.55a.518.518 0 0 0 .38.133.508.508 0 0 0 .362-.178l1.986-2.288a.518.518 0 0 0-.028-.711c-1.376-1.357-3.082-2.611-6.215-2.611-4.79 0-8.401 3.583-8.401 8.335 0 2.268.836 4.369 2.357 5.916 1.534 1.56 3.633 2.42 5.913 2.42 2.82 0 4.785-.816 6.578-2.734a.52.52 0 0 0 0-.71z"/></g><g><path fill="#db393b" d="M8.59 23.424c-2.318 0-4.065-1.818-4.065-4.23 0-2.45 1.69-4.229 4.021-4.229 2.318 0 4.065 1.819 4.065 4.23 0 2.45-1.69 4.23-4.022 4.23zm6.375-10.195c-1.317-1.87-3.58-7.064-2.919-8.66-2.055 2.345-1.319 6.53-1.319 6.53s-.799-1.453-.55-3.877c-1.336.632-2.239 2.229-2.239 2.229S10.176 3.366 6.124 0c.988 1.79.078 5.408-.625 6.87-.653 1.357-2.367 4.569-3.9 6.168a8.662 8.662 0 0 1 4.078-1.705C2.335 12.467 0 15.517 0 19.195c0 4.753 3.674 8.335 8.546 8.335 4.761 0 8.5-3.576 8.585-8.175.059-2.762-.849-4.255-2.166-6.126z"/></g></g></g></g></svg>