<svg xmlns="http://www.w3.org/2000/svg" width="20" height="20" viewBox="0 0 20 20"><g><g><g/><g><path fill="#fff" d="M14.783 1.304a3.897 3.897 0 0 1 3.913 3.913v9.566a3.897 3.897 0 0 1-3.913 3.913H5.217a3.897 3.897 0 0 1-3.913-3.913V5.217a3.897 3.897 0 0 1 3.913-3.913zM5.217 0C2.347 0 0 2.348 0 5.217v9.566C0 17.653 2.348 20 5.217 20h9.566C17.653 20 20 17.652 20 14.783V5.217C20 2.347 17.652 0 14.783 0z"/></g><g><path fill="#fff" d="M10 6.174c2.087 0 3.827 1.74 3.827 3.826 0 2.087-1.74 3.827-3.827 3.827-2.087 0-3.826-1.74-3.826-3.827 0-2.087 1.74-3.826 3.826-3.826zm0-1.304c-2.87 0-5.13 2.348-5.13 5.13 0 2.783 2.348 5.13 5.13 5.13 2.783 0 5.13-2.347 5.13-5.13 0-2.782-2.26-5.13-5.13-5.13z"/></g><g><path fill="#fff" d="M15.3 5.83a1.13 1.13 0 1 0 0-2.26 1.13 1.13 0 0 0 0 2.26z"/></g></g></g></svg>