<svg xmlns="http://www.w3.org/2000/svg" width="28" height="15" viewBox="0 0 28 15"><g><g><g/><g><path fill="#fff" d="M20.089 14.458c-.546-.364-1.091-.909-1.637-1.364-.363-.363-1.09-1.09-1.273-1.09-.272.09-.454.818-.454 1.454 0 .091 0 .727-.455 1.091-.363.364-1 .455-1.09.455h-1.728c-.909 0-4-.182-6.727-2.728C3.361 9.186.543 3.367.36 3.095.271 2.64.18 2.004.543 1.64c.364-.364 1-.455 1.273-.455h3.818c.09 0 .545.091.91.273.363.182.545.637.545.637s.545 1.272 1.363 2.454c1.182 1.818 1.727 2.273 1.91 2.364.181-.364.272-1.546.181-2.637 0-.454-.09-1-.273-1.181a1.097 1.097 0 0 0-.727-.273l-.636-.546c-.091-.636.545-1.09 1-1.272C10.543.73 11.543.64 12.725.64h.636c1.091 0 1.455.09 1.91.182 1.545.363 1.454 1.545 1.454 3V5.73c0 .364 0 .909.09 1.182.183-.091.819-.637 1.91-2.273.727-1.09 1.273-2.273 1.364-2.545.181-.364.545-.819 1.454-.819h4.273c.909 0 1.454.273 1.636.819.273.545.182 1.545-2.182 4.181-.363.364-.636.728-.909 1-.545.637-1.09 1.273-1.09 1.455.09.09.636.545 1.181 1 1.364 1.09 2.273 2.09 2.727 2.818.455.727.364 1.182.273 1.545-.363.819-1.454.91-1.727.91h-3.727c-.364 0-1.091-.091-1.91-.546zm-2.91-3.909c.819 0 1.546.727 2.273 1.455.455.454.91.909 1.364 1.181.636.364 1.182.364 1.273.364h3.545c.182 0 .364-.09.455-.09 0 0 0-.092-.091-.183-.364-.636-1.273-1.545-2.455-2.454-1.09-.91-1.636-1.364-1.727-2-.091-.727.454-1.273 1.454-2.455.273-.272.546-.636.91-1 1.454-1.636 1.818-2.363 1.909-2.727H21.27c-.181.364-.727 1.636-1.454 2.727-1.727 2.546-2.546 2.91-3.091 2.91-.182 0-.364 0-.546-.092-.909-.545-.909-1.636-.818-2.545V3.73c.091-1.545 0-1.545-.363-1.635-.364-.091-.637-.091-1.728-.182h-.636c-.545 0-1.182 0-1.727.09l.272.273c.546.637.546 1.819.546 2 .09 1.455.09 3.455-.91 3.91-.181.09-.363.09-.545.09-.818 0-1.727-.818-3.09-3-.728-1.09-1.364-2.454-1.364-2.545l-.091-.091c-.091 0-.182-.09-.273-.09H1.725c.545 1.09 3.09 6 5.909 8.635 2.455 2.273 5.273 2.364 5.818 2.364h1.727s.182-.09.273-.09v-.092c0-.273 0-2.363 1.455-2.727.09-.09.182-.09.272-.09z"/></g></g></g></svg>